<?xml version="1.0" encoding="utf-8"?>
<!-- Generator: Adobe Illustrator 24.0.1, SVG Export Plug-In . SVG Version: 6.00 Build 0)  -->
<svg version="1.1" id="Layer_1" xmlns="http://www.w3.org/2000/svg" xmlns:xlink="http://www.w3.org/1999/xlink" x="0px" y="0px"
	 viewBox="0 0 126 126" style="enable-background:new 0 0 126 126;" xml:space="preserve">
<style type="text/css">
	.st0{fill:#F8AA12;}
	.st1{fill:#020203;}
</style>
<path class="st0" d="M126.3,63c0,16.7-6.5,32-17.1,43.3c-11.5,12.3-28,20-46.2,20s-34.6-7.7-46.2-20C6.2,95-0.3,79.7-0.3,63
	C-0.3,28,28-0.3,63-0.3S126.3,28,126.3,63z"/>
<path class="st1" d="M85.1,37.6c0-6.1-2.5-11.6-6.5-15.6c-4-4-9.5-6.5-15.6-6.5c-12.2,0-22.1,9.9-22.1,22.1v3.7c-3.3,0-6,2.7-6,6
	c0,3.3,2.7,6,6,6c0,7.5,3.7,14.1,9.4,18.1l-0.4,1.9c-0.9,4.2-4,7.5-7.9,8.9c-0.2,0.1-0.4,0.1-0.7,0.2l-11.9,3.2
	c-7.4,2-12.5,8.8-12.5,16.5v4.2c11.5,12.3,28,20,46.2,20s34.6-7.7,46.2-20v-4.2c0-7.7-5.1-14.5-12.5-16.5l-11.9-3.2
	c-0.2-0.1-0.4-0.1-0.7-0.2c-4-1.3-7-4.7-7.9-8.9l-0.4-1.9c5.7-4,9.4-10.6,9.4-18.1c3.3,0,6-2.7,6-6c0-3.3-2.7-6-6-6V37.6z"/>
</svg>
