<?xml version="1.0" encoding="utf-8"?>
<!-- Generator: Adobe Illustrator 24.0.1, SVG Export Plug-In . SVG Version: 6.00 Build 0)  -->
<svg version="1.1" id="Layer_1" xmlns="http://www.w3.org/2000/svg" xmlns:xlink="http://www.w3.org/1999/xlink" x="0px" y="0px"
	 viewBox="0 0 190 60" style="enable-background:new 0 0 190 60;" xml:space="preserve">
<style type="text/css">
	.st0{fill:#504538;}
	.st1{opacity:0.5;enable-background:new    ;}
	.st2{fill:#F8A907;}
	.st3{fill:#FFFFFF;}
</style>
<image style="overflow:visible;enable-background:new    ;" width="1500" height="424" xlink:href="../../../../Downloads/Construck.png"  transform="matrix(1 0 0 1 -1068.3818 -1212.7982)">
</image>
<path class="st0" d="M8,38.2c-1.9-0.8-3.4-2-4.6-3.5c-1.1-1.5-1.7-3.4-1.7-5.5h7.4c0.1,1.4,0.6,2.5,1.5,3.3s2.1,1.2,3.7,1.2
	s2.9-0.4,3.8-1.2s1.4-1.8,1.4-3c0-1-0.3-1.9-0.9-2.5c-0.6-0.7-1.4-1.2-2.3-1.6s-2.2-0.8-3.9-1.3c-2.2-0.7-4-1.3-5.4-1.9
	s-2.6-1.6-3.6-2.9s-1.5-3-1.5-5.2c0-2,0.5-3.8,1.5-5.3s2.4-2.7,4.3-3.5c1.8-0.8,3.9-1.2,6.3-1.2c3.5,0,6.4,0.9,8.6,2.6
	s3.4,4.1,3.7,7.2h-7.6c-0.1-1.2-0.6-2.2-1.5-2.9c-0.9-0.8-2.2-1.2-3.7-1.2c-1.3,0-2.4,0.3-3.2,1c-0.8,0.7-1.2,1.7-1.2,3
	c0,0.9,0.3,1.7,0.9,2.3c0.6,0.6,1.4,1.1,2.3,1.5c0.9,0.4,2.2,0.8,3.8,1.3c2.2,0.7,4.1,1.3,5.5,2s2.6,1.6,3.6,3c1,1.3,1.5,3,1.5,5.2
	c0,1.8-0.5,3.5-1.4,5.1c-1,1.6-2.3,2.8-4.2,3.8c-1.8,0.9-4,1.4-6.5,1.4S10,39,8,38.2z M51.1,12.8c1.6,0.9,2.9,2.2,3.8,4
	c0.9,1.8,1.4,3.9,1.4,6.3v16h-6.9V24c0-2.2-0.5-3.8-1.6-5s-2.6-1.7-4.4-1.7c-1.9,0-3.4,0.6-4.5,1.7c-1.1,1.2-1.6,2.8-1.6,5v15.1
	h-6.9V2.6h6.9v12.6c0.9-1.2,2.1-2.1,3.5-2.8c1.5-0.7,3.1-1,4.9-1C47.6,11.4,49.5,11.8,51.1,12.8z M60.1,18c1.1-2.1,2.6-3.8,4.5-4.9
	s4-1.7,6.3-1.7c2,0,3.8,0.4,5.3,1.2s2.7,1.9,3.7,3.1v-3.9h6.9v27.3H80v-4c-0.9,1.3-2.1,2.3-3.7,3.2c-1.6,0.8-3.4,1.3-5.4,1.3
	c-2.3,0-4.4-0.6-6.3-1.8s-3.4-2.8-4.5-5c-1.1-2.1-1.6-4.6-1.6-7.4S59,20.1,60.1,18z M79,21.1c-0.7-1.2-1.5-2.1-2.7-2.8
	c-1.1-0.6-2.3-1-3.6-1c-1.3,0-2.5,0.3-3.5,0.9c-1.1,0.6-2,1.5-2.6,2.7c-0.7,1.2-1,2.6-1,4.3c0,1.6,0.3,3.1,1,4.3
	c0.7,1.2,1.6,2.2,2.7,2.8c1.1,0.7,2.3,1,3.5,1c1.3,0,2.5-0.3,3.6-1c1.1-0.6,2-1.6,2.7-2.8c0.7-1.2,1-2.6,1-4.3
	C80,23.8,79.6,22.3,79,21.1z M101.8,12.6c1.6-0.8,3.3-1.2,5.3-1.2c2.3,0,4.4,0.6,6.3,1.7s3.4,2.8,4.5,4.9s1.6,4.6,1.6,7.4
	s-0.5,5.3-1.6,7.4c-1.1,2.2-2.6,3.8-4.5,5s-4,1.8-6.3,1.8c-2,0-3.8-0.4-5.3-1.2s-2.8-1.8-3.7-3.1v3.9h-6.9V2.6h6.9v13.1
	C99,14.5,100.2,13.4,101.8,12.6z M111.5,21.1c-0.7-1.2-1.6-2.1-2.7-2.7s-2.3-0.9-3.6-0.9c-1.2,0-2.4,0.3-3.5,1
	c-1.1,0.6-2,1.6-2.7,2.8c-0.7,1.2-1,2.6-1,4.3c0,1.6,0.3,3.1,1,4.3c0.7,1.2,1.6,2.1,2.7,2.8c1.1,0.6,2.3,1,3.5,1
	c1.3,0,2.5-0.3,3.6-1s2-1.6,2.7-2.8c0.7-1.2,1-2.7,1-4.3C112.5,23.7,112.2,22.3,111.5,21.1z M129,17.3v21.8h-6.9V17.3H129z
	 M149.5,39.1l-9.3-11.6v11.6h-6.9V2.6h6.9v20.7l9.2-11.6h9l-12,13.7L158.5,39L149.5,39.1L149.5,39.1z M159.5,18
	c1.1-2.1,2.6-3.8,4.5-4.9s4-1.7,6.3-1.7c2,0,3.8,0.4,5.3,1.2s2.7,1.9,3.7,3.1v-3.9h6.9v27.3h-6.9v-4c-0.9,1.3-2.1,2.3-3.7,3.2
	c-1.6,0.8-3.4,1.3-5.4,1.3c-2.3,0-4.4-0.6-6.3-1.8c-1.9-1.2-3.4-2.8-4.5-5c-1.1-2.1-1.7-4.6-1.7-7.4C157.9,22.6,158.4,20.1,159.5,18
	z M178.4,21.1c-0.7-1.2-1.5-2.1-2.7-2.8c-1.1-0.6-2.3-1-3.6-1s-2.5,0.3-3.5,0.9c-1.1,0.6-2,1.5-2.6,2.7c-0.7,1.2-1,2.6-1,4.3
	c0,1.6,0.3,3.1,1,4.3c0.7,1.2,1.6,2.2,2.7,2.8c1.1,0.7,2.3,1,3.5,1c1.3,0,2.5-0.3,3.6-1c1.1-0.6,2-1.6,2.7-2.8c0.7-1.2,1-2.6,1-4.3
	C179.4,23.8,179,22.3,178.4,21.1z"/>
<g class="st1">
	<path d="M63,45.9c0.7-0.5,1.5-0.7,2.4-0.7c0.9,0,1.6,0.2,2.3,0.6c0.7,0.4,1.2,0.9,1.6,1.6c0.4,0.7,0.6,1.5,0.6,2.5
		s-0.2,1.8-0.6,2.5c-0.4,0.7-0.9,1.3-1.6,1.6c-0.7,0.4-1.4,0.6-2.3,0.6c-1,0-1.8-0.2-2.4-0.7c-0.7-0.5-1.1-1.1-1.4-1.8v2.4h-0.8V42
		h0.8v5.7C61.9,46.9,62.4,46.3,63,45.9z M68.6,47.7c-0.3-0.6-0.8-1.1-1.3-1.4c-0.6-0.3-1.2-0.5-2-0.5c-0.7,0-1.3,0.2-1.9,0.5
		c-0.6,0.3-1,0.8-1.3,1.4c-0.3,0.6-0.5,1.3-0.5,2.1c0,0.8,0.2,1.5,0.5,2.1c0.3,0.6,0.8,1.1,1.3,1.4c0.6,0.3,1.2,0.5,1.9,0.5
		c0.7,0,1.4-0.2,2-0.5c0.6-0.3,1-0.8,1.3-1.4c0.3-0.6,0.5-1.3,0.5-2.1S68.9,48.3,68.6,47.7z"/>
	<path d="M79.3,45.3L74,58.7h-0.8l1.7-4.3L71,45.3h0.8l3.4,8.3l3.2-8.3H79.3z"/>
</g>
<g>
	<path d="M91.2,53.1l0.2,0.4c-1.1,1.1-2.3,1.7-3.7,1.7c-1.4,0-2.6-0.5-3.7-1.6c-1-1.1-1.4-2.4-1.4-3.9s0.5-2.9,1.6-3.9
		c1.1-1.1,2.3-1.6,3.7-1.6c1.3,0,2.4,0.4,3.5,1.1l-0.6,0.7c-0.8-0.8-1.8-1.3-2.9-1.3c-1.2,0-2.3,0.5-3.1,1.4c-0.8,1-1.2,2.2-1.2,3.6
		s0.4,2.6,1.2,3.6s1.8,1.4,3,1.4C88.9,54.6,90.1,54.2,91.2,53.1z"/>
	<path d="M109.9,44.2l-0.1,8.9l7.7-9.1v11h-0.7l0.1-8.9l-7.7,9.1v-11H109.9z"/>
	<path d="M128.6,51.9c0,1-0.4,1.7-1.1,2.3c-0.7,0.6-1.6,0.8-2.6,0.8c-1,0-1.8-0.2-2.4-0.7s-1.1-1.2-1.2-1.9l0.8-0.2
		c0.1,0.6,0.4,1.2,1,1.7s1.2,0.7,1.9,0.7c0.7,0,1.3-0.2,1.9-0.7c0.6-0.5,0.8-1.1,0.8-1.7s-0.2-1.2-0.7-1.6c-0.5-0.4-1.2-0.7-2.3-1
		s-1.8-0.6-2.3-1.1c-0.5-0.5-0.7-1-0.7-1.7c0-0.8,0.4-1.6,1-2.2c0.7-0.6,1.4-0.8,2.4-0.8c0.8,0,1.7,0.2,2.3,0.7c0.6,0.4,1,1,1.1,1.6
		l-0.8,0.2c-0.1-0.5-0.4-1-1-1.3c-0.5-0.4-1.1-0.6-1.6-0.6c-0.7,0-1.2,0.2-1.7,0.6c-0.5,0.4-0.7,1-0.7,1.6s0.2,1,0.6,1.3
		c0.5,0.4,1.1,0.6,2.2,0.8c1.1,0.2,1.9,0.6,2.5,1.2C128.4,50.5,128.6,51.1,128.6,51.9z"/>
	<path class="st2" d="M139.1,44.2v0.6l-3.2-0.1v10.2h-1V44.7l-3.2,0.1v-0.6H139.1z"/>
	<path d="M161.8,44.2v6.5c0,1.3-0.4,2.4-1.2,3.2c-0.7,0.8-1.8,1.2-2.9,1.2c-1.2,0-2.2-0.4-3-1.2s-1.2-1.9-1.2-3.2v-6.5h1v6.3
		c0,1.2,0.2,2.2,0.8,2.9c0.6,0.7,1.3,1.1,2.3,1.1c1,0,1.7-0.4,2.3-1.1c0.6-0.7,0.8-1.7,0.8-2.9v-6.3H161.8z"/>
	<path d="M174.4,53.1l0.2,0.4c-1.1,1.1-2.3,1.7-3.7,1.7c-1.4,0-2.6-0.5-3.7-1.6c-1-1.1-1.4-2.4-1.4-3.9s0.5-2.9,1.6-3.9
		c1.1-1.1,2.3-1.6,3.7-1.6c1.3,0,2.4,0.4,3.5,1.1l-0.6,0.7c-0.8-0.8-1.8-1.3-2.9-1.3c-1.2,0-2.3,0.5-3.1,1.4c-0.8,1-1.2,2.2-1.2,3.6
		s0.4,2.6,1.2,3.6s1.8,1.4,3,1.4C172.1,54.6,173.2,54.2,174.4,53.1z"/>
	<path d="M103.4,45.7c-1.1-1.1-2.3-1.6-3.8-1.6c-1.6,0-2.8,0.5-3.8,1.6c-1.1,1.1-1.6,2.4-1.6,3.9c0,1.6,0.5,2.9,1.6,3.8
		c1,1,2.2,1.6,3.5,1.6v-0.5c-1.1-0.1-2-0.6-2.8-1.4c-0.8-1-1.3-2.2-1.3-3.6s0.5-2.6,1.3-3.6s1.9-1.4,3.1-1.4s2.3,0.5,3.1,1.4
		s1.3,2.2,1.3,3.6s-0.5,2.6-1.3,3.6c-0.7,0.8-1.7,1.3-2.8,1.4V55c1.4-0.1,2.5-0.6,3.5-1.6c1.1-1.1,1.6-2.4,1.6-3.8
		C104.9,48.1,104.4,46.7,103.4,45.7z"/>
	<polygon points="187.2,55 187,54.6 187,54.6 181.1,49 180.4,49.7 185.5,54.6 185.5,54.6 185.8,55 	"/>
	<polygon points="180.3,49.1 185.6,44.2 184.7,44.2 179.1,49.6 179.4,49.9 	"/>
	<polygon class="st3" points="179.2,50.1 179.2,50.2 179.5,50 179.4,49.9 	"/>
	<path d="M179.7,44.2V55h-1V44.2H179.7z"/>
	<path d="M145.9,50.2c1.1,0,2-0.2,2.8-0.8s1-1.2,1-2.2c0-0.8-0.4-1.7-1.1-2.2c-0.7-0.6-1.6-0.8-2.8-0.8h-3.2l0,0l0.4,0.5h0.7l0,0
		h2.2c0.8,0,1.4,0.2,2,0.7c0.5,0.5,0.7,1.1,0.7,1.9c0,0.8-0.2,1.4-0.8,1.9c-0.6,0.5-1.2,0.6-1.9,0.6h-1.6l4.7,5.1h1.2L145.9,50.2z"
		/>
</g>
<ellipse class="st2" cx="72.8" cy="25.2" rx="5.1" ry="5.9"/>
<ellipse class="st2" cx="105.4" cy="25.6" rx="5.1" ry="5.9"/>
<ellipse class="st2" cx="172.2" cy="25.4" rx="5.1" ry="5.9"/>
<path class="st2" d="M122.5,13.9c-0.8-0.8-1.2-1.7-1.2-2.9c0-1.1,0.4-2.1,1.2-2.9c0.8-0.8,1.8-1.2,3-1.2s2.2,0.4,3,1.2
	c0.8,0.8,1.2,1.7,1.2,2.9c0,1.1-0.4,2.1-1.2,2.9s-1.8,1.2-3,1.2C124.3,15,123.3,14.7,122.5,13.9z"/>
</svg>
